<mxfile host="app.diagrams.net" agent="Mozilla/5.0 (Windows NT 10.0; Win64; x64) AppleWebKit/537.36 (KHTML, like Gecko) Chrome/129.0.0.0 Safari/537.36" version="24.7.16" pages="2">
  <diagram name="Диаграмма развертывания" id="aLHF074rEFcJSzx64zBp">
    <mxGraphModel dx="1750" dy="883" grid="1" gridSize="10" guides="1" tooltips="1" connect="1" arrows="1" fold="1" page="1" pageScale="1" pageWidth="1200" pageHeight="700" math="0" shadow="0">
      <root>
        <mxCell id="0" />
        <mxCell id="1" parent="0" />
        <mxCell id="s6wiTMYL8JLyaTi2Q1hj-31" value="" style="group" vertex="1" connectable="0" parent="1">
          <mxGeometry x="100" y="30" width="370" height="300" as="geometry" />
        </mxCell>
        <mxCell id="s6wiTMYL8JLyaTi2Q1hj-32" value="" style="group" vertex="1" connectable="0" parent="s6wiTMYL8JLyaTi2Q1hj-31">
          <mxGeometry x="-30" width="370" height="300" as="geometry" />
        </mxCell>
        <mxCell id="s6wiTMYL8JLyaTi2Q1hj-2" value="&lt;div&gt;&amp;lt;&amp;lt;device&amp;gt;&amp;gt;&lt;/div&gt;Клиент" style="verticalAlign=top;align=left;spacingTop=8;spacingLeft=2;spacingRight=12;shape=cube;size=10;direction=south;fontStyle=4;html=1;whiteSpace=wrap;" vertex="1" parent="s6wiTMYL8JLyaTi2Q1hj-32">
          <mxGeometry width="370" height="300" as="geometry" />
        </mxCell>
        <mxCell id="s6wiTMYL8JLyaTi2Q1hj-46" value="" style="group" vertex="1" connectable="0" parent="s6wiTMYL8JLyaTi2Q1hj-32">
          <mxGeometry x="60" y="40.90909090909091" width="260" height="218.18181818181816" as="geometry" />
        </mxCell>
        <mxCell id="s6wiTMYL8JLyaTi2Q1hj-30" value="&amp;lt;&amp;lt;device&amp;gt;&amp;gt;&lt;div&gt;Веб-браузер&lt;/div&gt;" style="verticalAlign=top;align=left;spacingTop=8;spacingLeft=2;spacingRight=12;shape=cube;size=10;direction=south;fontStyle=4;html=1;whiteSpace=wrap;" vertex="1" parent="s6wiTMYL8JLyaTi2Q1hj-46">
          <mxGeometry width="260" height="218.18181818181816" as="geometry" />
        </mxCell>
        <mxCell id="s6wiTMYL8JLyaTi2Q1hj-45" value="&amp;lt;&amp;lt;artifact&amp;gt;&amp;gt;&lt;div&gt;JS ECMA22&lt;/div&gt;" style="shape=module;align=left;spacingLeft=20;align=center;verticalAlign=top;whiteSpace=wrap;html=1;" vertex="1" parent="s6wiTMYL8JLyaTi2Q1hj-46">
          <mxGeometry x="130" y="136.36363636363635" width="100" height="54.54545454545454" as="geometry" />
        </mxCell>
        <mxCell id="s6wiTMYL8JLyaTi2Q1hj-43" value="&amp;lt;&amp;lt;artifact&amp;gt;&amp;gt;&lt;div&gt;HTML5&lt;/div&gt;" style="shape=module;align=left;spacingLeft=20;align=center;verticalAlign=top;whiteSpace=wrap;html=1;" vertex="1" parent="s6wiTMYL8JLyaTi2Q1hj-46">
          <mxGeometry x="130" y="27.27272727272727" width="100" height="54.54545454545454" as="geometry" />
        </mxCell>
        <mxCell id="s6wiTMYL8JLyaTi2Q1hj-38" value="&amp;lt;&amp;lt;artifact&amp;gt;&amp;gt;&lt;div&gt;CSS3&lt;/div&gt;" style="shape=module;align=left;spacingLeft=20;align=center;verticalAlign=top;whiteSpace=wrap;html=1;" vertex="1" parent="s6wiTMYL8JLyaTi2Q1hj-46">
          <mxGeometry x="20" y="95.45454545454545" width="100" height="54.54545454545454" as="geometry" />
        </mxCell>
        <mxCell id="s6wiTMYL8JLyaTi2Q1hj-34" value="" style="group" vertex="1" connectable="0" parent="1">
          <mxGeometry x="490" y="20" width="490" height="360" as="geometry" />
        </mxCell>
        <mxCell id="s6wiTMYL8JLyaTi2Q1hj-35" value="" style="group" vertex="1" connectable="0" parent="s6wiTMYL8JLyaTi2Q1hj-34">
          <mxGeometry x="-8.853499170115764" width="498.8534991701158" height="359.99999999999994" as="geometry" />
        </mxCell>
        <mxCell id="s6wiTMYL8JLyaTi2Q1hj-36" value="" style="group" vertex="1" connectable="0" parent="s6wiTMYL8JLyaTi2Q1hj-35">
          <mxGeometry x="-9.03056915351808" y="17.14285714285714" width="507.88406832363387" height="342.85714285714283" as="geometry" />
        </mxCell>
        <mxCell id="s6wiTMYL8JLyaTi2Q1hj-55" value="" style="group" vertex="1" connectable="0" parent="s6wiTMYL8JLyaTi2Q1hj-36">
          <mxGeometry x="110.53902556883837" y="-6.753246753246753" width="397.34504275479554" height="301.7142857142856" as="geometry" />
        </mxCell>
        <mxCell id="s6wiTMYL8JLyaTi2Q1hj-3" value="&lt;div&gt;&amp;lt;&amp;lt;device&amp;gt;&amp;gt;&lt;/div&gt;&lt;div&gt;Веб-сервер&lt;/div&gt;" style="verticalAlign=top;align=left;spacingTop=8;spacingLeft=2;spacingRight=12;shape=cube;size=10;direction=south;fontStyle=4;html=1;whiteSpace=wrap;" vertex="1" parent="s6wiTMYL8JLyaTi2Q1hj-55">
          <mxGeometry width="397.34504275479554" height="301.7142857142856" as="geometry" />
        </mxCell>
        <mxCell id="s6wiTMYL8JLyaTi2Q1hj-54" value="" style="group" vertex="1" connectable="0" parent="s6wiTMYL8JLyaTi2Q1hj-55">
          <mxGeometry x="30.70928840052943" y="65.97402597402596" width="329.60753829022843" height="194.8051948051948" as="geometry" />
        </mxCell>
        <mxCell id="s6wiTMYL8JLyaTi2Q1hj-33" value="&lt;div&gt;Контейнер сервлетов&lt;/div&gt;" style="verticalAlign=top;align=left;spacingTop=8;spacingLeft=2;spacingRight=12;shape=cube;size=10;direction=south;fontStyle=4;html=1;whiteSpace=wrap;" vertex="1" parent="s6wiTMYL8JLyaTi2Q1hj-54">
          <mxGeometry width="329.60753829022843" height="194.8051948051948" as="geometry" />
        </mxCell>
        <mxCell id="s6wiTMYL8JLyaTi2Q1hj-49" value="&amp;lt;&amp;lt;artifact&amp;gt;&amp;gt;&lt;div&gt;Servlet API&lt;/div&gt;" style="shape=module;align=left;spacingLeft=20;align=center;verticalAlign=top;whiteSpace=wrap;html=1;" vertex="1" parent="s6wiTMYL8JLyaTi2Q1hj-54">
          <mxGeometry x="20.58747400046225" y="76.36363636363633" width="102.94766476878796" height="57.14285714285714" as="geometry" />
        </mxCell>
        <mxCell id="s6wiTMYL8JLyaTi2Q1hj-50" value="&amp;lt;&amp;lt;artifact&amp;gt;&amp;gt;&lt;div&gt;config.xml&lt;/div&gt;" style="shape=module;align=left;spacingLeft=20;align=center;verticalAlign=top;whiteSpace=wrap;html=1;" vertex="1" parent="s6wiTMYL8JLyaTi2Q1hj-54">
          <mxGeometry x="164.71626363006072" y="30.410389610389604" width="103.1226757988949" height="42.31688311688311" as="geometry" />
        </mxCell>
        <mxCell id="s6wiTMYL8JLyaTi2Q1hj-51" value="&amp;lt;&amp;lt;artifact&amp;gt;&amp;gt;&lt;div&gt;*.class&lt;/div&gt;" style="shape=module;align=left;spacingLeft=20;align=center;verticalAlign=top;whiteSpace=wrap;html=1;" vertex="1" parent="s6wiTMYL8JLyaTi2Q1hj-54">
          <mxGeometry x="154.41943819988663" y="112.82717282717275" width="102.94766476878796" height="57.14285714285714" as="geometry" />
        </mxCell>
        <mxCell id="s6wiTMYL8JLyaTi2Q1hj-58" value="" style="group" vertex="1" connectable="0" parent="1">
          <mxGeometry x="670" y="430" width="480" height="430" as="geometry" />
        </mxCell>
        <mxCell id="s6wiTMYL8JLyaTi2Q1hj-60" value="" style="group" vertex="1" connectable="0" parent="s6wiTMYL8JLyaTi2Q1hj-58">
          <mxGeometry width="250" height="180" as="geometry" />
        </mxCell>
        <mxCell id="s6wiTMYL8JLyaTi2Q1hj-61" value="" style="group" vertex="1" connectable="0" parent="s6wiTMYL8JLyaTi2Q1hj-60">
          <mxGeometry x="-10" y="-10" width="250" height="180" as="geometry" />
        </mxCell>
        <mxCell id="s6wiTMYL8JLyaTi2Q1hj-4" value="&lt;div&gt;&amp;lt;&amp;lt;device&amp;gt;&amp;gt;&lt;/div&gt;Сервер базы данных" style="verticalAlign=top;align=left;spacingTop=8;spacingLeft=2;spacingRight=12;shape=cube;size=10;direction=south;fontStyle=4;html=1;whiteSpace=wrap;" vertex="1" parent="s6wiTMYL8JLyaTi2Q1hj-61">
          <mxGeometry width="250" height="180" as="geometry" />
        </mxCell>
        <mxCell id="s6wiTMYL8JLyaTi2Q1hj-59" value="&amp;lt;&amp;lt;artifact&amp;gt;&amp;gt;&lt;div&gt;PostgreSQL&lt;/div&gt;" style="shape=module;align=left;spacingLeft=20;align=center;verticalAlign=top;whiteSpace=wrap;html=1;" vertex="1" parent="s6wiTMYL8JLyaTi2Q1hj-61">
          <mxGeometry x="50" y="80" width="150" height="60" as="geometry" />
        </mxCell>
        <mxCell id="s6wiTMYL8JLyaTi2Q1hj-63" style="edgeStyle=orthogonalEdgeStyle;rounded=0;orthogonalLoop=1;jettySize=auto;html=1;entryX=0.495;entryY=1.002;entryDx=0;entryDy=0;entryPerimeter=0;" edge="1" parent="1" source="s6wiTMYL8JLyaTi2Q1hj-2" target="s6wiTMYL8JLyaTi2Q1hj-3">
          <mxGeometry relative="1" as="geometry" />
        </mxCell>
        <mxCell id="s6wiTMYL8JLyaTi2Q1hj-64" value="HTTP запросы" style="edgeLabel;html=1;align=center;verticalAlign=middle;resizable=0;points=[];fontSize=15;" vertex="1" connectable="0" parent="s6wiTMYL8JLyaTi2Q1hj-63">
          <mxGeometry x="0.1251" relative="1" as="geometry">
            <mxPoint x="-9" as="offset" />
          </mxGeometry>
        </mxCell>
        <mxCell id="s6wiTMYL8JLyaTi2Q1hj-65" style="edgeStyle=orthogonalEdgeStyle;rounded=0;orthogonalLoop=1;jettySize=auto;html=1;exitX=0;exitY=0;exitDx=155.8571428571428;exitDy=397.34504275479554;exitPerimeter=0;entryX=0.659;entryY=0.001;entryDx=0;entryDy=0;entryPerimeter=0;" edge="1" parent="1" source="s6wiTMYL8JLyaTi2Q1hj-3" target="s6wiTMYL8JLyaTi2Q1hj-2">
          <mxGeometry relative="1" as="geometry">
            <Array as="points">
              <mxPoint x="583" y="228" />
            </Array>
          </mxGeometry>
        </mxCell>
        <mxCell id="s6wiTMYL8JLyaTi2Q1hj-66" value="HTTP ответы" style="edgeLabel;html=1;align=center;verticalAlign=middle;resizable=0;points=[];fontSize=15;" vertex="1" connectable="0" parent="s6wiTMYL8JLyaTi2Q1hj-65">
          <mxGeometry x="-0.0033" y="5" relative="1" as="geometry">
            <mxPoint x="-12" y="-3" as="offset" />
          </mxGeometry>
        </mxCell>
        <mxCell id="s6wiTMYL8JLyaTi2Q1hj-67" style="edgeStyle=orthogonalEdgeStyle;rounded=0;orthogonalLoop=1;jettySize=auto;html=1;entryX=-0.002;entryY=0.512;entryDx=0;entryDy=0;entryPerimeter=0;" edge="1" parent="1" source="s6wiTMYL8JLyaTi2Q1hj-3" target="s6wiTMYL8JLyaTi2Q1hj-4">
          <mxGeometry relative="1" as="geometry" />
        </mxCell>
        <mxCell id="s6wiTMYL8JLyaTi2Q1hj-68" value="&lt;font style=&quot;font-size: 15px;&quot;&gt;SQL запросы&lt;/font&gt;" style="edgeLabel;html=1;align=center;verticalAlign=middle;resizable=0;points=[];" vertex="1" connectable="0" parent="s6wiTMYL8JLyaTi2Q1hj-67">
          <mxGeometry x="-0.013" y="-1" relative="1" as="geometry">
            <mxPoint as="offset" />
          </mxGeometry>
        </mxCell>
      </root>
    </mxGraphModel>
  </diagram>
  <diagram id="bV3K67zhA8FTczqwq3k_" name="Диаграмма компонентов (Сервер)">
    <mxGraphModel dx="1909" dy="964" grid="1" gridSize="10" guides="1" tooltips="1" connect="1" arrows="1" fold="1" page="1" pageScale="1" pageWidth="1200" pageHeight="700" math="0" shadow="0">
      <root>
        <mxCell id="0" />
        <mxCell id="1" parent="0" />
        <mxCell id="DsFojyrMMlBVwkls6ZBt-1" value="Клиентское приложение" style="html=1;dropTarget=0;whiteSpace=wrap;" vertex="1" parent="1">
          <mxGeometry x="60" y="280" width="120" height="60" as="geometry" />
        </mxCell>
        <mxCell id="DsFojyrMMlBVwkls6ZBt-2" value="" style="shape=module;jettyWidth=8;jettyHeight=4;" vertex="1" parent="DsFojyrMMlBVwkls6ZBt-1">
          <mxGeometry x="1" width="20" height="20" relative="1" as="geometry">
            <mxPoint x="-27" y="7" as="offset" />
          </mxGeometry>
        </mxCell>
        <mxCell id="DsFojyrMMlBVwkls6ZBt-6" value="Порт 8080" style="shape=providedRequiredInterface;html=1;verticalLabelPosition=bottom;sketch=0;direction=west;" vertex="1" parent="1">
          <mxGeometry x="280" y="170" width="20" height="20" as="geometry" />
        </mxCell>
        <mxCell id="DsFojyrMMlBVwkls6ZBt-11" style="edgeStyle=orthogonalEdgeStyle;rounded=0;orthogonalLoop=1;jettySize=auto;html=1;entryX=1;entryY=0.5;entryDx=0;entryDy=0;entryPerimeter=0;endArrow=none;endFill=0;" edge="1" parent="1" source="DsFojyrMMlBVwkls6ZBt-1" target="DsFojyrMMlBVwkls6ZBt-6">
          <mxGeometry relative="1" as="geometry" />
        </mxCell>
        <mxCell id="Hem_Di7iU-qWQJUuQPxR-11" value="" style="group" vertex="1" connectable="0" parent="1">
          <mxGeometry x="360" y="70" width="700" height="530" as="geometry" />
        </mxCell>
        <mxCell id="DsFojyrMMlBVwkls6ZBt-33" value="&lt;font style=&quot;font-size: 17px;&quot;&gt;Apache Tomcat&lt;/font&gt;" style="verticalAlign=top;align=left;spacingTop=8;spacingLeft=2;spacingRight=12;shape=cube;size=10;direction=south;fontStyle=4;html=1;whiteSpace=wrap;" vertex="1" parent="Hem_Di7iU-qWQJUuQPxR-11">
          <mxGeometry width="700" height="530" as="geometry" />
        </mxCell>
        <mxCell id="Hem_Di7iU-qWQJUuQPxR-10" value="" style="group" vertex="1" connectable="0" parent="Hem_Di7iU-qWQJUuQPxR-11">
          <mxGeometry x="50" y="60" width="600" height="420" as="geometry" />
        </mxCell>
        <mxCell id="Hem_Di7iU-qWQJUuQPxR-1" value="&lt;span style=&quot;font-size: 16px;&quot;&gt;Движок Catalina&lt;/span&gt;" style="verticalAlign=top;align=left;spacingTop=8;spacingLeft=2;spacingRight=12;shape=cube;size=10;direction=south;fontStyle=4;html=1;whiteSpace=wrap;" vertex="1" parent="Hem_Di7iU-qWQJUuQPxR-10">
          <mxGeometry width="600" height="420" as="geometry" />
        </mxCell>
        <mxCell id="BRgwhu-Zyljl5Mwnd_tf-46" style="edgeStyle=orthogonalEdgeStyle;rounded=0;orthogonalLoop=1;jettySize=auto;html=1;entryX=1;entryY=0.5;entryDx=0;entryDy=0;endArrow=none;endFill=0;" edge="1" parent="Hem_Di7iU-qWQJUuQPxR-10" source="Hem_Di7iU-qWQJUuQPxR-4" target="BRgwhu-Zyljl5Mwnd_tf-25">
          <mxGeometry relative="1" as="geometry" />
        </mxCell>
        <mxCell id="Hem_Di7iU-qWQJUuQPxR-4" value="&lt;font style=&quot;font-size: 15px;&quot;&gt;catalina.bat&lt;/font&gt;" style="html=1;dropTarget=0;whiteSpace=wrap;" vertex="1" parent="Hem_Di7iU-qWQJUuQPxR-10">
          <mxGeometry x="310" y="20" width="150" height="60" as="geometry" />
        </mxCell>
        <mxCell id="Hem_Di7iU-qWQJUuQPxR-5" value="" style="shape=module;jettyWidth=8;jettyHeight=4;" vertex="1" parent="Hem_Di7iU-qWQJUuQPxR-4">
          <mxGeometry x="1" width="20" height="20" relative="1" as="geometry">
            <mxPoint x="-27" y="7" as="offset" />
          </mxGeometry>
        </mxCell>
        <mxCell id="BRgwhu-Zyljl5Mwnd_tf-25" value="Коннектор" style="html=1;dropTarget=0;whiteSpace=wrap;" vertex="1" parent="Hem_Di7iU-qWQJUuQPxR-10">
          <mxGeometry x="150" y="20" width="130" height="60" as="geometry" />
        </mxCell>
        <mxCell id="BRgwhu-Zyljl5Mwnd_tf-26" value="" style="shape=module;jettyWidth=8;jettyHeight=4;" vertex="1" parent="BRgwhu-Zyljl5Mwnd_tf-25">
          <mxGeometry x="1" width="20" height="20" relative="1" as="geometry">
            <mxPoint x="-27" y="7" as="offset" />
          </mxGeometry>
        </mxCell>
        <mxCell id="Hem_Di7iU-qWQJUuQPxR-13" value="" style="group" vertex="1" connectable="0" parent="Hem_Di7iU-qWQJUuQPxR-11">
          <mxGeometry x="70" y="150" width="530" height="300" as="geometry" />
        </mxCell>
        <mxCell id="Hem_Di7iU-qWQJUuQPxR-14" value="" style="group" vertex="1" connectable="0" parent="Hem_Di7iU-qWQJUuQPxR-13">
          <mxGeometry width="530" height="300" as="geometry" />
        </mxCell>
        <mxCell id="Hem_Di7iU-qWQJUuQPxR-6" value="&lt;font style=&quot;font-size: 14px;&quot;&gt;Хост (адрес)&lt;/font&gt;" style="verticalAlign=top;align=left;spacingTop=8;spacingLeft=2;spacingRight=12;shape=cube;size=10;direction=south;fontStyle=4;html=1;whiteSpace=wrap;" vertex="1" parent="Hem_Di7iU-qWQJUuQPxR-14">
          <mxGeometry width="530" height="300" as="geometry" />
        </mxCell>
        <mxCell id="Hem_Di7iU-qWQJUuQPxR-12" value="&lt;font style=&quot;font-size: 14px;&quot;&gt;Контекст (веб-приложение)&lt;/font&gt;" style="verticalAlign=top;align=left;spacingTop=8;spacingLeft=2;spacingRight=12;shape=cube;size=10;direction=south;fontStyle=4;html=1;whiteSpace=wrap;" vertex="1" parent="Hem_Di7iU-qWQJUuQPxR-14">
          <mxGeometry x="120" y="25" width="370" height="250" as="geometry" />
        </mxCell>
        <mxCell id="BRgwhu-Zyljl5Mwnd_tf-43" style="edgeStyle=orthogonalEdgeStyle;rounded=0;orthogonalLoop=1;jettySize=auto;html=1;entryX=0.5;entryY=0;entryDx=0;entryDy=0;endArrow=none;endFill=0;" edge="1" parent="Hem_Di7iU-qWQJUuQPxR-14" source="Hem_Di7iU-qWQJUuQPxR-15" target="BRgwhu-Zyljl5Mwnd_tf-19">
          <mxGeometry relative="1" as="geometry" />
        </mxCell>
        <mxCell id="BRgwhu-Zyljl5Mwnd_tf-44" style="edgeStyle=orthogonalEdgeStyle;rounded=0;orthogonalLoop=1;jettySize=auto;html=1;entryX=1;entryY=0.5;entryDx=0;entryDy=0;endArrow=none;endFill=0;" edge="1" parent="Hem_Di7iU-qWQJUuQPxR-14" source="Hem_Di7iU-qWQJUuQPxR-15" target="BRgwhu-Zyljl5Mwnd_tf-1">
          <mxGeometry relative="1" as="geometry">
            <Array as="points">
              <mxPoint x="420" y="93" />
              <mxPoint x="420" y="227" />
            </Array>
          </mxGeometry>
        </mxCell>
        <mxCell id="Hem_Di7iU-qWQJUuQPxR-15" value="servlet.class" style="html=1;dropTarget=0;whiteSpace=wrap;" vertex="1" parent="Hem_Di7iU-qWQJUuQPxR-14">
          <mxGeometry x="270" y="70" width="130" height="45" as="geometry" />
        </mxCell>
        <mxCell id="Hem_Di7iU-qWQJUuQPxR-16" value="" style="shape=module;jettyWidth=8;jettyHeight=4;" vertex="1" parent="Hem_Di7iU-qWQJUuQPxR-15">
          <mxGeometry x="1" width="20" height="20" relative="1" as="geometry">
            <mxPoint x="-27" y="7" as="offset" />
          </mxGeometry>
        </mxCell>
        <mxCell id="BRgwhu-Zyljl5Mwnd_tf-42" style="edgeStyle=orthogonalEdgeStyle;rounded=0;orthogonalLoop=1;jettySize=auto;html=1;endArrow=none;endFill=0;" edge="1" parent="Hem_Di7iU-qWQJUuQPxR-14" source="Hem_Di7iU-qWQJUuQPxR-17" target="Hem_Di7iU-qWQJUuQPxR-15">
          <mxGeometry relative="1" as="geometry" />
        </mxCell>
        <mxCell id="Hem_Di7iU-qWQJUuQPxR-17" value="web.xml" style="html=1;dropTarget=0;whiteSpace=wrap;" vertex="1" parent="Hem_Di7iU-qWQJUuQPxR-14">
          <mxGeometry x="150" y="70" width="90" height="45" as="geometry" />
        </mxCell>
        <mxCell id="Hem_Di7iU-qWQJUuQPxR-18" value="" style="shape=module;jettyWidth=8;jettyHeight=4;" vertex="1" parent="Hem_Di7iU-qWQJUuQPxR-17">
          <mxGeometry x="1" width="20" height="20" relative="1" as="geometry">
            <mxPoint x="-27" y="7" as="offset" />
          </mxGeometry>
        </mxCell>
        <mxCell id="BRgwhu-Zyljl5Mwnd_tf-1" value="index.jsp" style="html=1;dropTarget=0;whiteSpace=wrap;" vertex="1" parent="Hem_Di7iU-qWQJUuQPxR-14">
          <mxGeometry x="290" y="200" width="90" height="55" as="geometry" />
        </mxCell>
        <mxCell id="BRgwhu-Zyljl5Mwnd_tf-2" value="" style="shape=module;jettyWidth=8;jettyHeight=4;" vertex="1" parent="BRgwhu-Zyljl5Mwnd_tf-1">
          <mxGeometry x="1" width="20" height="20" relative="1" as="geometry">
            <mxPoint x="-27" y="7" as="offset" />
          </mxGeometry>
        </mxCell>
        <mxCell id="BRgwhu-Zyljl5Mwnd_tf-45" style="edgeStyle=orthogonalEdgeStyle;rounded=0;orthogonalLoop=1;jettySize=auto;html=1;endArrow=none;endFill=0;" edge="1" parent="Hem_Di7iU-qWQJUuQPxR-14" source="BRgwhu-Zyljl5Mwnd_tf-19" target="BRgwhu-Zyljl5Mwnd_tf-1">
          <mxGeometry relative="1" as="geometry" />
        </mxCell>
        <mxCell id="BRgwhu-Zyljl5Mwnd_tf-19" value="Статический&amp;nbsp;&lt;div&gt;контент&lt;/div&gt;" style="html=1;dropTarget=0;whiteSpace=wrap;" vertex="1" parent="Hem_Di7iU-qWQJUuQPxR-14">
          <mxGeometry x="270" y="135" width="130" height="40" as="geometry" />
        </mxCell>
        <mxCell id="BRgwhu-Zyljl5Mwnd_tf-20" value="" style="shape=module;jettyWidth=8;jettyHeight=4;" vertex="1" parent="BRgwhu-Zyljl5Mwnd_tf-19">
          <mxGeometry x="1" width="20" height="20" relative="1" as="geometry">
            <mxPoint x="-27" y="7" as="offset" />
          </mxGeometry>
        </mxCell>
        <mxCell id="BRgwhu-Zyljl5Mwnd_tf-21" value="Коннектор" style="html=1;dropTarget=0;whiteSpace=wrap;" vertex="1" parent="Hem_Di7iU-qWQJUuQPxR-14">
          <mxGeometry x="10" y="60" width="100" height="60" as="geometry" />
        </mxCell>
        <mxCell id="BRgwhu-Zyljl5Mwnd_tf-22" value="" style="shape=module;jettyWidth=8;jettyHeight=4;" vertex="1" parent="BRgwhu-Zyljl5Mwnd_tf-21">
          <mxGeometry x="1" width="20" height="20" relative="1" as="geometry">
            <mxPoint x="-27" y="7" as="offset" />
          </mxGeometry>
        </mxCell>
        <mxCell id="BRgwhu-Zyljl5Mwnd_tf-40" style="edgeStyle=orthogonalEdgeStyle;rounded=0;orthogonalLoop=1;jettySize=auto;html=1;entryX=0.5;entryY=1;entryDx=0;entryDy=0;endArrow=none;endFill=0;" edge="1" parent="Hem_Di7iU-qWQJUuQPxR-14" source="BRgwhu-Zyljl5Mwnd_tf-34" target="Hem_Di7iU-qWQJUuQPxR-17">
          <mxGeometry relative="1" as="geometry" />
        </mxCell>
        <mxCell id="BRgwhu-Zyljl5Mwnd_tf-34" value="Коннектор" style="html=1;dropTarget=0;whiteSpace=wrap;" vertex="1" parent="Hem_Di7iU-qWQJUuQPxR-14">
          <mxGeometry x="150" y="150" width="90" height="55" as="geometry" />
        </mxCell>
        <mxCell id="BRgwhu-Zyljl5Mwnd_tf-35" value="" style="shape=module;jettyWidth=8;jettyHeight=4;" vertex="1" parent="BRgwhu-Zyljl5Mwnd_tf-34">
          <mxGeometry x="1" width="20" height="20" relative="1" as="geometry">
            <mxPoint x="-27" y="7" as="offset" />
          </mxGeometry>
        </mxCell>
        <mxCell id="BRgwhu-Zyljl5Mwnd_tf-30" value="Порт 443" style="shape=providedRequiredInterface;html=1;verticalLabelPosition=bottom;sketch=0;direction=west;" vertex="1" parent="1">
          <mxGeometry x="280" y="300" width="20" height="20" as="geometry" />
        </mxCell>
        <mxCell id="BRgwhu-Zyljl5Mwnd_tf-31" style="edgeStyle=orthogonalEdgeStyle;rounded=0;orthogonalLoop=1;jettySize=auto;html=1;entryX=1;entryY=0.5;entryDx=0;entryDy=0;entryPerimeter=0;" edge="1" parent="1" source="DsFojyrMMlBVwkls6ZBt-1" target="BRgwhu-Zyljl5Mwnd_tf-30">
          <mxGeometry relative="1" as="geometry" />
        </mxCell>
        <mxCell id="BRgwhu-Zyljl5Mwnd_tf-33" style="edgeStyle=orthogonalEdgeStyle;rounded=0;orthogonalLoop=1;jettySize=auto;html=1;entryX=0;entryY=0.5;entryDx=0;entryDy=0;" edge="1" parent="1" source="DsFojyrMMlBVwkls6ZBt-6" target="BRgwhu-Zyljl5Mwnd_tf-25">
          <mxGeometry relative="1" as="geometry" />
        </mxCell>
        <mxCell id="BRgwhu-Zyljl5Mwnd_tf-32" style="edgeStyle=orthogonalEdgeStyle;rounded=0;orthogonalLoop=1;jettySize=auto;html=1;entryX=0;entryY=0.5;entryDx=0;entryDy=0;" edge="1" parent="1" source="BRgwhu-Zyljl5Mwnd_tf-30" target="BRgwhu-Zyljl5Mwnd_tf-21">
          <mxGeometry relative="1" as="geometry" />
        </mxCell>
        <mxCell id="BRgwhu-Zyljl5Mwnd_tf-36" value="Порт 80" style="shape=providedRequiredInterface;html=1;verticalLabelPosition=bottom;sketch=0;direction=west;" vertex="1" parent="1">
          <mxGeometry x="280" y="387.5" width="20" height="20" as="geometry" />
        </mxCell>
        <mxCell id="BRgwhu-Zyljl5Mwnd_tf-38" style="edgeStyle=orthogonalEdgeStyle;rounded=0;orthogonalLoop=1;jettySize=auto;html=1;entryX=1;entryY=0.5;entryDx=0;entryDy=0;entryPerimeter=0;" edge="1" parent="1" source="DsFojyrMMlBVwkls6ZBt-1" target="BRgwhu-Zyljl5Mwnd_tf-36">
          <mxGeometry relative="1" as="geometry" />
        </mxCell>
        <mxCell id="BRgwhu-Zyljl5Mwnd_tf-39" style="edgeStyle=orthogonalEdgeStyle;rounded=0;orthogonalLoop=1;jettySize=auto;html=1;entryX=0;entryY=0.5;entryDx=0;entryDy=0;" edge="1" parent="1" source="BRgwhu-Zyljl5Mwnd_tf-36" target="BRgwhu-Zyljl5Mwnd_tf-34">
          <mxGeometry relative="1" as="geometry" />
        </mxCell>
      </root>
    </mxGraphModel>
  </diagram>
</mxfile>
